<?xml version="1.0" encoding="utf-8"?>
<?xml-stylesheet type="text/xsl" href="rss1.xsl"?>
<rss version="2.0" xmlns:atom="http://www.w3.org/2005/Atom" xmlns:content="http://purl.org/rss/1.0/modules/content/" xmlns:dc="http://purl.org/dc/elements/1.1/" xmlns:media="http://search.yahoo.com/mrss/">
<channel>
 <title>Getty</title>
 <link>http://www.gettyimg.com/</link>
 <atom:link href="http://www.gettyimg.com/" rel="self" type="application/rss+xml" />

 
                <item>
                <title><![CDATA[【YOUTUBE】WEB-RiP - Nicki Minaj Super Freaky Girl 2023 1080p WEB H.264 DDP5.1-C.A.A]]></title>
                <link><![CDATA[https://sharemania.us/threads/nicki-minaj-super-freaky-girl-2023-1080p-web-h-264-ddp5-1-c-a-a.242379/]]></link>
                <description><![CDATA[<article>
<blockquote class="messageText SelectQuoteContainer ugc baseHtml">
<img src="https://ptpimg.me/yhj6iw.jpg" class="bbCodeImage LbImage" alt="[​IMG]" data-url="https://ptpimg.me/yhj6iw.jpg" style=""><br>
<br>
<div class="ToggleTriggerAnchor bbCodeSpoilerContainer">
<button type="button" class="button bbCodeSpoilerButton ToggleTrigger Tooltip JsOnly" data-target="> .SpoilerTarget"><span>Spoiler: <span class="SpoilerTitle">Mais imagens</span></span></button>
<div class="SpoilerTarget bbCodeSpoilerText"><img src="https://ptpimg.me/18eq6g.jpg" class="bbCodeImage LbImage" alt="[​IMG]" data-url="https://ptpimg.me/18eq6g.jpg" style=""><br>
<img src="https://ptpimg.me/16b6h1.jpg" class="bbCodeImage LbImage" alt="[​IMG]" data-url="https://ptpimg.me/16b6h1.jpg" style=""><img src="https://ptpimg.me/v8219k.jpg" class="bbCodeImage LbImage" alt="[​IMG]" data-url="https://ptpimg.me/v8219k.jpg" style=""><br>
<img src="https://ptpimg.me/ls0282.jpg" class="bbCodeImage LbImage" alt="[​IMG]" data-url="https://ptpimg.me/ls0282.jpg" style=""><img src="https://ptpimg.me/i7ik1r.jpg" class="bbCodeImage LbImage" alt="[​IMG]" data-url="https://ptpimg.me/i7ik1r.jpg" style=""></div>
</div><br>
<br>
<div class="ToggleTriggerAnchor bbCodeSpoilerContainer">
<button type="button" class="button bbCodeSpoilerButton ToggleTrigger Tooltip JsOnly" data-target="> .SpoilerTarget"><span>Spoiler: <span class="SpoilerTitle">MediaInfo</span></span></button>
<div class="SpoilerTarget bbCodeSpoilerText">General<br>
Unique ID : 56977556358264975562436103466663920490 (0x2ADD7A6AFA1C477D5BBDE472ACB9C36A)<br>
Complete name : Nicki.Minaj.Super.Freaky.Girl.2023.1080p.WEB-DL.H.264.DDP5.1-C.A.A.mkv<br>
Format : Matroska<br>
Format version : Version 4<br>
File size : 173 MiB<br>
Duration : 2 min 51 s<br>
Overall bit rate : 8 469 kb/s<br>
Movie name : Nicki Minaj - Super Freaky Girl (2023)<br>
Writing application : mkvmerge v82.0 ('SiGLA') 64-bit<br>
Writing library : libebml v1.4.5 + libmatroska v1.7.1<br>
Cover : Yes<br>
Attachments : cover.jpg<br>
<br>
Video<br>
ID : 1<br>
Format : AVC<br>
Format/Info : Advanced Video Codec<br>
Format profile : High@L4<br>
Format settings : CABAC / 4 Ref Frames<br>
Format settings, CABAC : Yes<br>
Format settings, Reference frames : 4 frames<br>
Codec ID : V_MPEG4/ISO/AVC<br>
Duration : 2 min 51 s<br>
Bit rate : 7 625 kb/s<br>
Width : 1 920 pixels<br>
Height : 1 080 pixels<br>
Display aspect ratio : 16:9<br>
Frame rate mode : Constant<br>
Frame rate : 23.976 FPS<br>
Color space : YUV<br>
Chroma subsampling : 4:2:0<br>
Bit depth : 8 bits<br>
Scan type : Progressive<br>
Bits/(Pixel*Frame) : 0.153<br>
Stream size : 155 MiB (90%)<br>
Writing library : x264 core 164<br>
Encoding settings : cabac=1 / ref=4 / deblock=1:0:0 / analyse=0x3:0x113 / me=hex / subme=8 / psy=1 / psy_rd=1.00:0.00 / mixed_ref=1 / me_range=16 / chroma_me=1 / trellis=2 / 8x8dct=1 / cqm=0 / deadzone=21,11 / fast_pskip=1 / chroma_qp_offset=-2 / threads=24 / lookahead_threads=4 / sliced_threads=0 / nr=0 / decimate=1 / interlaced=0 / bluray_compat=0 / constrained_intra=0 / bframes=3 / b_pyramid=2 / b_adapt=1 / b_bias=0 / direct=3 / weightb=1 / open_gop=0 / weightp=2 / keyint=72 / keyint_min=37 / scenecut=0 / intra_refresh=0 / rc_lookahead=50 / rc=crf / mbtree=1 / crf=20.0 / qcomp=0.60 / qpmin=0 / qpmax=69 / qpstep=4 / vbv_maxrate=8800 / vbv_bufsize=12000 / crf_max=0.0 / nal_hrd=none / filler=0 / ip_ratio=1.40 / aq=1:1.00<br>
Language : English<br>
Default : Yes<br>
Forced : No<br>
<br>
Audio<br>
ID : 2<br>
Format : E-AC-3 JOC<br>
Format/Info : Enhanced AC-3 with Joint Object Coding<br>
Commercial name : Dolby Digital Plus with Dolby Atmos<br>
Codec ID : A_EAC3<br>
Duration : 2 min 50 s<br>
Bit rate mode : Constant<br>
Bit rate : 768 kb/s<br>
Channel(s) : 6 channels<br>
Channel layout : L R C LFE Ls Rs<br>
Sampling rate : 48.0 kHz<br>
Frame rate : 31.250 FPS (1536 SPF)<br>
Compression mode : Lossy<br>
Delay relative to video : -27 ms<br>
Stream size : 15.6 MiB (9%)<br>
Language : English<br>
Service kind : Complete Main<br>
Default : Yes<br>
Forced : No<br>
Complexity index : 16<br>
Number of dynamic objects : 15<br>
Bed channel count : 1 channel<br>
Bed channel configuration : LFE</div>
</div><br>
<div class="bbCodeBlock bbCodeVfcHH HiddenContent">
<div class="attribution type">Hidden Content:</div>
<blockquote>You must either reply or click 'Like' to see the hidden information contained here.</blockquote>
</div>
<div class="messageTextEndMarker">&nbsp;</div>
</blockquote>
</article>]]></description>
                <author><![CDATA[-C.A.A]]></author>
                </item>

                
                <item>
                <title><![CDATA[【Albums (lossless)】FLAC - Linkin Park - One More Light (Explicit) [Qobuz Hi-Res 24bits/44.1kHz]]]></title>
                <link><![CDATA[https://sharemania.us/threads/linkin-park-one-more-light-explicit-qobuz-hi-res-24bits-44-1khz.242380/]]></link>
                <description><![CDATA[<article>
<blockquote class="messageText SelectQuoteContainer ugc baseHtml">
<span style="font-size: 22px"><b>Linkin Park - One More Light (Explicit) [Qobuz Hi-Res 24bits/44.1kHz]</b></span><br>
<br>
<img src="https://imgur.com/fHJwCVu.jpg" class="bbCodeImage LbImage" alt="[​IMG]" data-url="https://imgur.com/fHJwCVu.jpg" style=""><br>
<br>
<b>Tracks:</b><br>
01 - Nobody Can Save Me.flac<br>
02 - Good Goodbye (feat. Pusha T and Stormzy).flac<br>
03 - Talking to Myself.flac<br>
04 - Battle Symphony.flac<br>
05 - Invisible.flac<br>
06 - Heavy (feat. Kiiara).flac<br>
07 - Sorry for Now.flac<br>
08 - Halfway Right.flac<br>
09 - One More Light.flac<br>
10 - Sharp Edges.flac<br>
<br>
<b>Quality: Qobuz Hi-Res 24bits/44.1kHz<br>
Size: 411MB</b><br>
<br>
<div class="bbCodeBlock bbCodeVfcHH HiddenContent">
<div class="attribution type">Hidden Content:</div>
<blockquote>You must reply before you can see the hidden data contained here.</blockquote>
</div><b>Password: sharemania</b>
<div class="messageTextEndMarker">&nbsp;</div>
</blockquote>
</article>]]></description>
                <author><![CDATA[abby0511]]></author>
                </item>

                </channel></rss>